<mxfile host="app.diagrams.net" modified="2020-08-21T11:27:15.090Z" agent="5.0 (Macintosh; Intel Mac OS X 10_14_6) AppleWebKit/537.36 (KHTML, like Gecko) Chrome/84.0.4147.125 Safari/537.36" etag="MbvNVuF1EfHsmOSufSU-" version="13.6.4" type="github">
  <diagram id="-gZU8AkgJZggsZqtshdc" name="Page-1">
    <mxGraphModel dx="613" dy="640" grid="1" gridSize="10" guides="1" tooltips="1" connect="1" arrows="1" fold="1" page="1" pageScale="1" pageWidth="827" pageHeight="1169" math="0" shadow="0">
      <root>
        <mxCell id="0" />
        <mxCell id="1" parent="0" />
        <mxCell id="vfrpxVJVJR0vAS8Anz-6-1" value="" style="whiteSpace=wrap;html=1;aspect=fixed;" vertex="1" parent="1">
          <mxGeometry x="140" y="170" width="80" height="80" as="geometry" />
        </mxCell>
        <mxCell id="vfrpxVJVJR0vAS8Anz-6-2" value="" style="shape=singleArrow;whiteSpace=wrap;html=1;" vertex="1" parent="1">
          <mxGeometry x="220" y="180" width="100" height="60" as="geometry" />
        </mxCell>
        <mxCell id="vfrpxVJVJR0vAS8Anz-6-3" style="edgeStyle=orthogonalEdgeStyle;rounded=0;orthogonalLoop=1;jettySize=auto;html=1;exitX=0;exitY=0;exitDx=40;exitDy=39;exitPerimeter=0;" edge="1" parent="1" source="vfrpxVJVJR0vAS8Anz-6-2" target="vfrpxVJVJR0vAS8Anz-6-2">
          <mxGeometry relative="1" as="geometry" />
        </mxCell>
      </root>
    </mxGraphModel>
  </diagram>
</mxfile>
